<svg id="Layer_1" data-name="Layer 1" xmlns="http://www.w3.org/2000/svg" viewBox="0 0 225.09 23.56"><defs><style>.cls-1{fill:#fed136;}</style></defs><title>navbar-logo</title><path class="cls-1" d="M1.76,20.75A10,10,0,0,1,2,18.66a8.44,8.44,0,0,1,.61-1.88,7.51,7.51,0,0,1,1-1.67,8.77,8.77,0,0,1,1.34-1.38,8,8,0,0,1,1.71-1.07,8.78,8.78,0,0,1,2-.6,12.86,12.86,0,0,1,2.29-.19,9.67,9.67,0,0,1,3.75.7,8.29,8.29,0,0,1,2.89,1.93,8.54,8.54,0,0,1,1.82,2.83A9,9,0,0,1,20,20.72a9.16,9.16,0,0,1-.7,3.57,8.75,8.75,0,0,1-2,2.88,9.13,9.13,0,0,1-3,1.91,10.17,10.17,0,0,1-3.73.67A9.34,9.34,0,0,1,7,29.09a8.1,8.1,0,0,1-4.63-4.73A9.77,9.77,0,0,1,1.76,20.75Zm4.53-7.52a8.45,8.45,0,0,0-3.08,3.18,9,9,0,0,0-1,4.36,9.72,9.72,0,0,0,.68,3.68,7.81,7.81,0,0,0,2,2.86,9.19,9.19,0,0,0,3.29,1.83,9.8,9.8,0,0,1-3.8-3.35,9.24,9.24,0,0,1-1.42-5.24,9.74,9.74,0,0,1,.37-2.8,8.43,8.43,0,0,1,1.13-2.34A13.57,13.57,0,0,1,6.29,13.23ZM5.14,19.45a16.48,16.48,0,0,0,.44,3.91,10.08,10.08,0,0,0,1.26,3.07,5.93,5.93,0,0,0,1.93,2,4.6,4.6,0,0,0,2.41.68A4.77,4.77,0,0,0,15,27.19a6.72,6.72,0,0,0,1.15-2.32,11.19,11.19,0,0,0,.41-3.22,13.66,13.66,0,0,0-.47-3.71,9.39,9.39,0,0,0-1.3-2.89,6.24,6.24,0,0,0-2-1.84,4.82,4.82,0,0,0-2.45-.66A4.63,4.63,0,0,0,6.6,14.44a7,7,0,0,0-1.08,2.18A10,10,0,0,0,5.14,19.45Zm7.52-6.72a7,7,0,0,1,2.35,2,8.89,8.89,0,0,1,1.46,3.08A15.18,15.18,0,0,1,17,21.77a10.1,10.1,0,0,1-.56,3.53A8.31,8.31,0,0,1,14.83,28a7.1,7.1,0,0,0,1.66-1.72,7,7,0,0,0,.94-2.17,10.93,10.93,0,0,0,.31-2.74,12.56,12.56,0,0,0-.61-4,7.91,7.91,0,0,0-1.75-3A5.23,5.23,0,0,0,12.66,12.73Z" transform="translate(-1.76 -11.87)"/><path class="cls-1" d="M28.81,19.48v-.72h4.37v8.31a1.24,1.24,0,0,0,.18.74.76.76,0,0,0,.5.32,4,4,0,0,0,.87.07h.11v.7l-4.46.85V28.07a6.26,6.26,0,0,1-4,1.68,3.36,3.36,0,0,1-2.49-.92A3.56,3.56,0,0,1,23,26.2V22a10.46,10.46,0,0,0-.06-1.35,1.14,1.14,0,0,0-.41-.7,2.61,2.61,0,0,0-1.18-.42v-.72h4.47V26a5.53,5.53,0,0,0,.17,1.5,1.56,1.56,0,0,0,.55.86,1.63,1.63,0,0,0,1,.29,4.49,4.49,0,0,0,2.88-1.34V21.43C30.38,20.19,29.86,19.54,28.81,19.48Zm-4.63,7V21c0-1-.4-1.52-1.19-1.52l-.21,0-.22,0a1.81,1.81,0,0,1,.66.84,3.66,3.66,0,0,1,.14,1.13V26a3.76,3.76,0,0,0,.78,2.52,2.63,2.63,0,0,0,2.12.91,6,6,0,0,0,.75,0,3.17,3.17,0,0,1-2.1-.85A2.79,2.79,0,0,1,24.18,26.45Zm7.4,1.4V21.29a3.43,3.43,0,0,0-.23-1.36,1,1,0,0,0-1-.5l-.18,0-.19,0a1.55,1.55,0,0,1,.66.76,3.45,3.45,0,0,1,.17,1.17v7.73a1.13,1.13,0,0,0,.61-.43A1.64,1.64,0,0,0,31.58,27.85Z" transform="translate(-1.76 -11.87)"/><path class="cls-1" d="M40.42,18.55v1.88A12.65,12.65,0,0,1,41.86,19a1.79,1.79,0,0,1,1.21-.41,1.38,1.38,0,0,1,1,.43,1.5,1.5,0,0,1,.42,1.09,1.77,1.77,0,0,1-.38,1.15,1.19,1.19,0,0,1-1,.45,2,2,0,0,1-.56-.09,1.69,1.69,0,0,1-.52-.26l-.25-.21-.24-.17a.44.44,0,0,0-.23-.06.72.72,0,0,0-.45.18,3.72,3.72,0,0,0-.52.49v5.9a1.81,1.81,0,0,0,.17.9.83.83,0,0,0,.55.34,9.57,9.57,0,0,0,1.3.06v.67H35.89v-.67h.33c.94,0,1.41-.37,1.41-1.12V22.15c0-.94-.58-1.58-1.74-1.93v-.41l3.93-1.26ZM38,22.15V27.7a1.11,1.11,0,0,1-.14.62,2.44,2.44,0,0,1-.39.43,1.52,1.52,0,0,0,1-.37,1.5,1.5,0,0,0,.31-1.08V22.15a2.5,2.5,0,0,0-.37-1.53,1.38,1.38,0,0,0-1.16-.47l-.27,0-.28,0A2,2,0,0,1,38,22.15Zm3.2-1.72a1.16,1.16,0,0,1,.66.22,2.21,2.21,0,0,0,1.26.6c.43,0,.74-.28.93-.82a1.37,1.37,0,0,1-.5.17,1.26,1.26,0,0,1-.73-.25,1.36,1.36,0,0,0-.77-.37A1.65,1.65,0,0,0,41.24,20.43Z" transform="translate(-1.76 -11.87)"/><path class="cls-1" d="M62.61,25.25l5.33-13h5.28v.67a3.74,3.74,0,0,0-1.74.32,1.2,1.2,0,0,0-.58.88,16.09,16.09,0,0,0-.09,2.11V26.73A2.66,2.66,0,0,0,71,28a1.18,1.18,0,0,0,.69.58,6,6,0,0,0,1.5.22v.67H65.34v-.67a3.73,3.73,0,0,0,1.7-.29,1.1,1.1,0,0,0,.62-.75,8.11,8.11,0,0,0,.1-1.56V14.37L61.69,29.42H61L55,14.85v10a4.71,4.71,0,0,0,.64,2.63,3.31,3.31,0,0,0,2.13,1.27v.67H51.59v-.67a2.81,2.81,0,0,0,2-1,3.87,3.87,0,0,0,.71-2.48V13.92a3.14,3.14,0,0,0-1.2-.82,4,4,0,0,0-1.52-.23V12.2h5.58ZM53,28.75h2.58a1.85,1.85,0,0,1-.72-.64,3,3,0,0,1-.41-1,2.37,2.37,0,0,1-.53.89A3.85,3.85,0,0,1,53,28.75Zm.95-15.88h-.45a2.92,2.92,0,0,1,1.19.81,6.45,6.45,0,0,1,.89,1.62l5.65,13.45a1.81,1.81,0,0,0,.27-.85,2.79,2.79,0,0,0-.27-1L56.36,15.13a5.51,5.51,0,0,0-1-1.71A1.91,1.91,0,0,0,53.94,12.87ZM69,26.61V14.83a5.68,5.68,0,0,1,.22-2,1,1,0,0,0-.7.28,1.24,1.24,0,0,0-.26.66c0,.28,0,.73,0,1.34V26.92A2.82,2.82,0,0,1,68,28.13a1.8,1.8,0,0,1-.73.62h.43q.84,0,1-.48A4.6,4.6,0,0,0,69,26.61Z" transform="translate(-1.76 -11.87)"/><path class="cls-1" d="M77.69,20a1.66,1.66,0,0,0,.15.35,1.21,1.21,0,0,1,.16.57,1.25,1.25,0,0,1-.43.94,1.53,1.53,0,0,1-1.08.41,1.43,1.43,0,0,1-1-.33,1,1,0,0,1-.37-.75,1.76,1.76,0,0,1,.62-1.24,4.56,4.56,0,0,1,1.7-1,7.2,7.2,0,0,1,2.38-.38,4.74,4.74,0,0,1,1.78.33,2.87,2.87,0,0,1,1.31,1,2.66,2.66,0,0,1,.49,1.62v6.2c0,.5.14.75.43.75a1,1,0,0,0,.62-.4l.45.52a5.74,5.74,0,0,1-1.1.9,2.23,2.23,0,0,1-1.2.31,2,2,0,0,1-1.26-.36,2,2,0,0,1-.64-1.12,5.12,5.12,0,0,1-3.33,1.45,2.69,2.69,0,0,1-1.86-.61,2,2,0,0,1-.69-1.55,2.39,2.39,0,0,1,.42-1.43,4.15,4.15,0,0,1,1.11-1.05c.46-.31,1.14-.69,2-1.16s1.64-.87,2.21-1.2V20.9a1.83,1.83,0,0,0-.37-1.25,1.45,1.45,0,0,0-1.14-.43,1.89,1.89,0,0,0-1,.24A.64.64,0,0,0,77.69,20Zm.77,9.2a3.11,3.11,0,0,1-1.78-.45A1.5,1.5,0,0,1,76,27.42a2.25,2.25,0,0,1,.33-1.17,6.63,6.63,0,0,1,1-1.24,6.23,6.23,0,0,0-1.53,1.17,2,2,0,0,0-.55,1.41,1.49,1.49,0,0,0,.66,1.24,2.28,2.28,0,0,0,1.42.5A3.48,3.48,0,0,0,78.46,29.18Zm-1.15-7.7a.86.86,0,0,1-.67-.17.63.63,0,0,1-.24-.49,1.16,1.16,0,0,1,.21-.68,10.75,10.75,0,0,1,.72-.86,5.65,5.65,0,0,0-1.33.88,1.32,1.32,0,0,0-.46,1,.62.62,0,0,0,.25.46.87.87,0,0,0,.59.21A1.25,1.25,0,0,0,77.31,21.48Zm3.29,6V23.58a8.38,8.38,0,0,0-2.18,1.59,2.5,2.5,0,0,0-.61,1.7,1.41,1.41,0,0,0,.36,1,1.17,1.17,0,0,0,.86.37A2.3,2.3,0,0,0,80.6,27.5ZM81,21.7v4.82a5.73,5.73,0,0,0,.3,2.13,1.17,1.17,0,0,0,1.2.7,1.62,1.62,0,0,0,.64-.1,1.37,1.37,0,0,1-1-.58,2.78,2.78,0,0,1-.31-1.49v-5.6a3.12,3.12,0,0,0-.36-1.76,1.72,1.72,0,0,0-1.24-.58,1.27,1.27,0,0,1,.64.71A6.55,6.55,0,0,1,81,21.7Z" transform="translate(-1.76 -11.87)"/><path class="cls-1" d="M90.26,18.55v1.62A10.74,10.74,0,0,1,92.16,19a4.88,4.88,0,0,1,2.08-.41q3.45,0,3.45,3.43v5.56c0,.53.13.87.38,1a2.61,2.61,0,0,0,1.15.2v.67H93.34v-.67a2,2,0,0,0,1.14-.25,1.21,1.21,0,0,0,.36-1.05v-5.9a2.72,2.72,0,0,0-.2-1.09,1.53,1.53,0,0,0-.6-.68,1.86,1.86,0,0,0-1-.23,2.83,2.83,0,0,0-1.36.36A7.86,7.86,0,0,0,90.26,21v6.45a1.64,1.64,0,0,0,.18.84.77.77,0,0,0,.5.37,4.43,4.43,0,0,0,.89.09v.67H85.94v-.67a2.58,2.58,0,0,0,1.15-.2c.26-.13.4-.44.4-.92V22.22a2.11,2.11,0,0,0-.37-1.3,2.24,2.24,0,0,0-1.18-.75v-.4l3.86-1.22Zm-2.37,3.27v5.6a3,3,0,0,1-.08.8,1.46,1.46,0,0,1-.35.53,1.18,1.18,0,0,0,1.2-1.33V21.6a1.49,1.49,0,0,0-1.44-1.48l-.22,0-.21,0A1.72,1.72,0,0,1,87.89,21.82Zm7.35-.39v6c0,.25,0,.43,0,.55a.83.83,0,0,1-.1.34,1.5,1.5,0,0,1-.31.41H95a.82.82,0,0,0,.85-.47,3.83,3.83,0,0,0,.2-1.41V21.48a2.42,2.42,0,0,0-.46-1.6,2.15,2.15,0,0,0-1.64-.6,1.9,1.9,0,0,1,1,.78A2.76,2.76,0,0,1,95.24,21.43Z" transform="translate(-1.76 -11.87)"/><path class="cls-1" d="M100.42,24.18a5.66,5.66,0,0,1,.73-2.86,5.64,5.64,0,0,1,7.61-2.05,5.23,5.23,0,0,1,2,2,5.61,5.61,0,0,1,.72,2.82,5.84,5.84,0,0,1-.43,2.24,5.55,5.55,0,0,1-1.2,1.82,5.46,5.46,0,0,1-1.75,1.18,5.81,5.81,0,0,1-4.91-.29,5.16,5.16,0,0,1-2-2A5.68,5.68,0,0,1,100.42,24.18Zm4.33,5.07A6.79,6.79,0,0,1,102.37,27a5.86,5.86,0,0,1-.42-5,5.42,5.42,0,0,1,1-1.56,12.86,12.86,0,0,1,1.54-1.35,5.79,5.79,0,0,0-2.06,1.24,5,5,0,0,0-1.22,1.81,6,6,0,0,0-.39,2.15,5.39,5.39,0,0,0,.25,1.64,4.89,4.89,0,0,0,.76,1.45,5.13,5.13,0,0,0,1.22,1.14A5.85,5.85,0,0,0,104.75,29.25Zm-1.31-5.77a9,9,0,0,0,.76,4.08,2.25,2.25,0,0,0,2,1.49,1.61,1.61,0,0,0,1.13-.51,3.56,3.56,0,0,0,.84-1.5,8.52,8.52,0,0,0,.31-2.44,9.43,9.43,0,0,0-.68-4,2.08,2.08,0,0,0-1.87-1.42,2,2,0,0,0-1.81,1.07A6.26,6.26,0,0,0,103.44,23.48Zm4.31,5.14A3.25,3.25,0,0,0,109.16,27a6.55,6.55,0,0,0,.48-2.66c0-2.59-.79-4.28-2.39-5.06a4.86,4.86,0,0,1,1.23,2.1,12,12,0,0,1,.37,3.34,7.85,7.85,0,0,1-.27,2.23A5.51,5.51,0,0,1,107.75,28.62Z" transform="translate(-1.76 -11.87)"/><path class="cls-1" d="M117.25,18.55v1.88A14.55,14.55,0,0,1,118.69,19a1.81,1.81,0,0,1,1.21-.41,1.38,1.38,0,0,1,1,.43,1.5,1.5,0,0,1,.42,1.09,1.77,1.77,0,0,1-.38,1.15,1.19,1.19,0,0,1-1,.45,2,2,0,0,1-.56-.09,1.52,1.52,0,0,1-.51-.26l-.26-.21-.24-.17a.43.43,0,0,0-.22-.06.72.72,0,0,0-.46.18,3.72,3.72,0,0,0-.52.49v5.9a1.69,1.69,0,0,0,.18.9.79.79,0,0,0,.55.34,9.37,9.37,0,0,0,1.3.06v.67h-6.56v-.67h.33c.94,0,1.42-.37,1.42-1.12V22.15c0-.94-.59-1.58-1.75-1.93v-.41l3.93-1.26Zm-2.38,3.6V27.7a1.11,1.11,0,0,1-.14.62,2.44,2.44,0,0,1-.39.43,1.52,1.52,0,0,0,1-.37,1.5,1.5,0,0,0,.31-1.08V22.15a2.5,2.5,0,0,0-.37-1.53,1.38,1.38,0,0,0-1.16-.47l-.26,0-.29,0A2,2,0,0,1,114.87,22.15Zm3.2-1.72a1.16,1.16,0,0,1,.66.22,2.21,2.21,0,0,0,1.27.6c.42,0,.73-.28.92-.82a1.31,1.31,0,0,1-.5.17,1.26,1.26,0,0,1-.73-.25,1.36,1.36,0,0,0-.77-.37A1.65,1.65,0,0,0,118.07,20.43Z" transform="translate(-1.76 -11.87)"/><path class="cls-1" d="M148,12.2h5.5v.67A3.87,3.87,0,0,0,152,14.23a11,11,0,0,0-1.3,2.72l-4.46,12.8h-.69l-4.7-13.42-4.68,13.42h-.65l-4.65-13.42c-.41-1.2-.7-2-.87-2.36a1.92,1.92,0,0,0-.65-.83,2.06,2.06,0,0,0-1.17-.27V12.2h7.19v.67l-.13,0H135c-1.1,0-1.65.33-1.65,1a6.46,6.46,0,0,0,.39,1.72L137.05,25l3.37-9.66a7.26,7.26,0,0,0-.59-1.48,2,2,0,0,0-.6-.71,1.24,1.24,0,0,0-.52-.24l-.89-.07V12.2h7.39v.67a4.81,4.81,0,0,0-1.38.2.7.7,0,0,0-.51.73A7.7,7.7,0,0,0,143.9,16L147.07,25l2.6-7.48c.16-.44.3-.87.41-1.28a4.52,4.52,0,0,0,.16-1.14,2.19,2.19,0,0,0-.54-1.63,2.76,2.76,0,0,0-1.68-.63ZM130.9,15.37l4.74,13.7c.06-.12.11-.23.16-.32a2.85,2.85,0,0,0,.13-.36A1.09,1.09,0,0,0,136,28a2.66,2.66,0,0,0-.21-1l-4-11.67a16.69,16.69,0,0,0-.66-1.7,1.43,1.43,0,0,0-.59-.66,1.77,1.77,0,0,0-1-.14,2.25,2.25,0,0,1,.72.85A17.31,17.31,0,0,1,130.9,15.37Zm9.92-.19L145.67,29a3,3,0,0,0,.35-1.17,3.55,3.55,0,0,0-.24-1l-4.24-12a10.2,10.2,0,0,0-.51-1.24,1.28,1.28,0,0,0-.51-.52,2.39,2.39,0,0,0-1-.2A5.31,5.31,0,0,1,140.82,15.18Zm11.12-2.31h-2.42a2.09,2.09,0,0,1,.82.83,3,3,0,0,1,.26,1.13,6.89,6.89,0,0,1,.57-1.12A3.62,3.62,0,0,1,151.94,12.87Z" transform="translate(-1.76 -11.87)"/><path class="cls-1" d="M164,26.4l.48.38a5.88,5.88,0,0,1-1.3,1.68,5.07,5.07,0,0,1-1.67,1,5.74,5.74,0,0,1-1.9.31,5,5,0,0,1-2.49-.64,4.71,4.71,0,0,1-1.83-1.87,5.73,5.73,0,0,1-.67-2.77,6.51,6.51,0,0,1,.41-2.3,6,6,0,0,1,1.14-1.89A5.19,5.19,0,0,1,157.88,19a4.62,4.62,0,0,1,2-.46A4.91,4.91,0,0,1,162,19a3.89,3.89,0,0,1,1.58,1.26,4.29,4.29,0,0,1,.62,1.2,9.38,9.38,0,0,1,.29,1.49h-7.37a5.75,5.75,0,0,0,.44,2.14,3.85,3.85,0,0,0,2.31,2.19,4.28,4.28,0,0,0,1.33.23A4.15,4.15,0,0,0,164,26.4Zm-6.71-6.63A5.75,5.75,0,0,0,155,24.51,4.71,4.71,0,0,0,156.4,28a4.35,4.35,0,0,0,3.15,1.35,5.56,5.56,0,0,0,2.08-.42,4.61,4.61,0,0,0,1.76-1.25,9,9,0,0,1-1.52.77,5.12,5.12,0,0,1-1.85.3,4,4,0,0,1-3-1.27,4.6,4.6,0,0,1-1.22-3.31,6.31,6.31,0,0,1,.41-2.32A9.87,9.87,0,0,1,157.32,19.77Zm-.11,2.4h4.26v-.4a3,3,0,0,0-.25-1.26,2.08,2.08,0,0,0-.7-.86,1.8,1.8,0,0,0-1-.3,2,2,0,0,0-1.58.83A3.43,3.43,0,0,0,157.21,22.17Zm4.66,0h.85a3.33,3.33,0,0,0-.56-2,2.85,2.85,0,0,0-1.76-.87,2.39,2.39,0,0,1,1.12.92,3.42,3.42,0,0,1,.35,1.73Z" transform="translate(-1.76 -11.87)"/><path class="cls-1" d="M172.63,13.25,176.4,12h.5V27.23a1,1,0,0,0,.35.87,2.33,2.33,0,0,0,1.21.23V29l-4.34.78V28.33a5.68,5.68,0,0,1-3.59,1.42,4.35,4.35,0,0,1-1.89-.42,4.51,4.51,0,0,1-1.51-1.2,5.44,5.44,0,0,1-1-1.79,6.45,6.45,0,0,1-.34-2.12,5.73,5.73,0,0,1,.76-2.9,5.48,5.48,0,0,1,2.07-2,5.76,5.76,0,0,1,2.9-.73,7.61,7.61,0,0,1,2.57.52v-3a3.16,3.16,0,0,0-.25-1.46,2.35,2.35,0,0,0-1.24-.86Zm-2.35,5.87a5.05,5.05,0,0,0-1.73.69,4.72,4.72,0,0,0-1.69,1.89,5.55,5.55,0,0,0-.64,2.62,5.69,5.69,0,0,0,.56,2.5,4.45,4.45,0,0,0,1.57,1.83,4,4,0,0,0,2.26.68,4.29,4.29,0,0,0,1.52-.26l-.71.05a4.12,4.12,0,0,1-1.59-.33,4.48,4.48,0,0,1-1.43-1,4.61,4.61,0,0,1-1-1.53,5,5,0,0,1-.38-1.94A5.9,5.9,0,0,1,170.28,19.12Zm3.84,8.33V20.29a3.12,3.12,0,0,0-1-.79,2.57,2.57,0,0,0-1.16-.28,2.69,2.69,0,0,0-1.6.53,3.53,3.53,0,0,0-1.15,1.6A7.29,7.29,0,0,0,168.8,24a6.29,6.29,0,0,0,.38,2.33,3.18,3.18,0,0,0,1.06,1.49,2.56,2.56,0,0,0,1.56.51A3.6,3.6,0,0,0,174.12,27.45Zm-.52-13.87h-.42a2.12,2.12,0,0,1,1.13.87,3.13,3.13,0,0,1,.21,1.25V29.14a1.46,1.46,0,0,0,.6-.4,1.09,1.09,0,0,0,.19-.69V15.73A3.18,3.18,0,0,0,175,14.1,1.54,1.54,0,0,0,173.6,13.58Z" transform="translate(-1.76 -11.87)"/><path class="cls-1" d="M186.43,13.25,190.2,12h.5V27.23a.94.94,0,0,0,.35.87,2.31,2.31,0,0,0,1.2.23V29l-4.33.78V28.33a5.7,5.7,0,0,1-3.59,1.42,4.36,4.36,0,0,1-1.9-.42,4.61,4.61,0,0,1-1.51-1.2,5.63,5.63,0,0,1-1-1.79,6.73,6.73,0,0,1-.34-2.12,5.64,5.64,0,0,1,.77-2.9,5.45,5.45,0,0,1,2.06-2,5.79,5.79,0,0,1,2.9-.73,7.62,7.62,0,0,1,2.58.52v-3a3.3,3.3,0,0,0-.25-1.46,2.4,2.4,0,0,0-1.24-.86Zm-2.36,5.87a5,5,0,0,0-1.72.69,4.74,4.74,0,0,0-1.7,1.89,5.86,5.86,0,0,0-.08,5.12,4.53,4.53,0,0,0,1.57,1.83,4,4,0,0,0,2.26.68,4.3,4.3,0,0,0,1.53-.26l-.71.05a4,4,0,0,1-1.59-.33,4.41,4.41,0,0,1-1.44-1,4.77,4.77,0,0,1-1-1.53,5,5,0,0,1-.37-1.94A5.91,5.91,0,0,1,184.07,19.12Zm3.85,8.33V20.29a3.15,3.15,0,0,0-1-.79,2.53,2.53,0,0,0-1.15-.28,2.69,2.69,0,0,0-1.6.53,3.47,3.47,0,0,0-1.16,1.6,7.29,7.29,0,0,0-.42,2.65,6.5,6.5,0,0,0,.38,2.33A3.25,3.25,0,0,0,184,27.82a2.57,2.57,0,0,0,1.57.51A3.62,3.62,0,0,0,187.92,27.45Zm-.53-13.87H187a2.09,2.09,0,0,1,1.12.87,3,3,0,0,1,.22,1.25V29.14a1.42,1.42,0,0,0,.59-.4,1,1,0,0,0,.19-.69V15.73a3.18,3.18,0,0,0-.33-1.63A1.54,1.54,0,0,0,187.39,13.58Z" transform="translate(-1.76 -11.87)"/><path class="cls-1" d="M197.49,18.55v8.82a2.32,2.32,0,0,0,.11.85.7.7,0,0,0,.44.4,3.72,3.72,0,0,0,1,.13v.67h-5.71v-.67a1.58,1.58,0,0,0,1.06-.3,1.34,1.34,0,0,0,.3-1V21.84a1.58,1.58,0,0,0-.35-1,2,2,0,0,0-1-.67v-.39L197,18.55Zm-2.4,3.33v5.8a1.22,1.22,0,0,1-.5,1.07,1.11,1.11,0,0,0,1.3-1.3V21.72a1.74,1.74,0,0,0-.38-1.2,1.26,1.26,0,0,0-1-.42l-.45,0A1.85,1.85,0,0,1,195.09,21.88ZM196,12.6a1.77,1.77,0,0,1,.87.23,1.73,1.73,0,0,1,.64.62,1.67,1.67,0,0,1,.23.85,1.7,1.7,0,0,1-.23.86,1.68,1.68,0,0,1-.64.63A1.77,1.77,0,0,1,196,16a1.6,1.6,0,0,1-1.19-.51,1.65,1.65,0,0,1-.5-1.21,1.71,1.71,0,0,1,.22-.85,1.63,1.63,0,0,1,.63-.62A1.66,1.66,0,0,1,196,12.6Zm.21.39a1.62,1.62,0,0,0-1.11.35,1.17,1.17,0,0,0-.39.94,1.27,1.27,0,0,0,.38.94,1.63,1.63,0,0,0,1.12.41,3.1,3.1,0,0,1-.57-.63,1.23,1.23,0,0,1-.19-.7A1.56,1.56,0,0,1,196.19,13Z" transform="translate(-1.76 -11.87)"/><path class="cls-1" d="M204.33,18.55v1.62a11.11,11.11,0,0,1,1.9-1.21,4.91,4.91,0,0,1,2.08-.41q3.47,0,3.46,3.43v5.56c0,.53.12.87.38,1a2.56,2.56,0,0,0,1.14.2v.67h-5.88v-.67a2,2,0,0,0,1.14-.25,1.21,1.21,0,0,0,.36-1.05v-5.9a2.72,2.72,0,0,0-.2-1.09,1.46,1.46,0,0,0-.59-.68,1.88,1.88,0,0,0-1-.23,2.86,2.86,0,0,0-1.37.36A7.86,7.86,0,0,0,204.33,21v6.45a1.54,1.54,0,0,0,.19.84.75.75,0,0,0,.49.37,4.64,4.64,0,0,0,.9.09v.67H200v-.67a2.55,2.55,0,0,0,1.15-.2c.27-.13.4-.44.4-.92V22.22a2.17,2.17,0,0,0-.36-1.3,2.27,2.27,0,0,0-1.19-.75v-.4l3.86-1.22ZM202,21.82v5.6a3,3,0,0,1-.08.8,1.61,1.61,0,0,1-.35.53,1.17,1.17,0,0,0,1.19-1.33V21.6a1.4,1.4,0,0,0-.43-1,1.38,1.38,0,0,0-1-.44l-.22,0-.2,0A1.72,1.72,0,0,1,202,21.82Zm7.34-.39v6c0,.25,0,.43,0,.55a1.33,1.33,0,0,1-.1.34,1.75,1.75,0,0,1-.31.41h.23a.82.82,0,0,0,.84-.47,3.6,3.6,0,0,0,.21-1.41V21.48a2.48,2.48,0,0,0-.46-1.6,2.17,2.17,0,0,0-1.64-.6,1.83,1.83,0,0,1,1,.78A2.66,2.66,0,0,1,209.31,21.43Z" transform="translate(-1.76 -11.87)"/><path class="cls-1" d="M214.82,22.37a3.48,3.48,0,0,1,1.24-2.7,4.72,4.72,0,0,1,3.29-1.12,5.85,5.85,0,0,1,3.87,1.4,3.57,3.57,0,0,1,1-.66,2.49,2.49,0,0,1,1-.24,1.73,1.73,0,0,1,1.15.38,1.19,1.19,0,0,1,.45.95,1,1,0,0,1-.27.7.91.91,0,0,1-.7.3.86.86,0,0,1-.47-.14,2.23,2.23,0,0,1-.47-.43,2.74,2.74,0,0,0-.42-.42.55.55,0,0,0-.39-.14.9.9,0,0,0-.47.18,3.67,3.67,0,0,1,.8,2.17,3.33,3.33,0,0,1-.55,1.84,3.86,3.86,0,0,1-1.5,1.36,4.62,4.62,0,0,1-1.18.41,10.83,10.83,0,0,1-1.25.14,9.13,9.13,0,0,0-2.17.35,1,1,0,0,0-.78,1c0,.59.51.89,1.52.89l.92,0h1.11a7.44,7.44,0,0,1,3.58.68,2.4,2.4,0,0,1,1.19,2.28,3.32,3.32,0,0,1-.38,1.58,3.4,3.4,0,0,1-1.15,1.25,6.18,6.18,0,0,1-2,.82,12.07,12.07,0,0,1-2.84.3,7.64,7.64,0,0,1-3.59-.67A2,2,0,0,1,214.15,33a1.92,1.92,0,0,1,.6-1.39,2.63,2.63,0,0,1,1.77-.69,2.2,2.2,0,0,1-1.58-2,2.25,2.25,0,0,1,.73-1.59,5.78,5.78,0,0,1,2.08-1.23Q214.83,24.82,214.82,22.37Zm2,12.47c-1-.5-1.43-1.11-1.43-1.84a1.37,1.37,0,0,1,.45-1,5.5,5.5,0,0,1,1.33-.81,3.9,3.9,0,0,0-1.93.58,1.44,1.44,0,0,0-.67,1.22,1.46,1.46,0,0,0,.58,1.14A3.6,3.6,0,0,0,216.8,34.84Zm1.9-15.91a4.42,4.42,0,0,0-1.81.61,3.53,3.53,0,0,0-1.23,1.23,3,3,0,0,0-.44,1.57,3.22,3.22,0,0,0,.77,2.12,4.27,4.27,0,0,0,2.31,1.32,4.77,4.77,0,0,1-1.68-1.54,3.19,3.19,0,0,1,.1-3.75A5,5,0,0,1,218.7,18.93Zm-1.9,8a4.33,4.33,0,0,0-1.09.91,1.73,1.73,0,0,0-.37,1.09,1.53,1.53,0,0,0,.82,1.3,4.1,4.1,0,0,0,2.16.53c1.82,0,3,0,3.66.08a4.09,4.09,0,0,1,1.67.45,1.38,1.38,0,0,1,.74,1.31,3.57,3.57,0,0,1,0,.38,2.15,2.15,0,0,0,.33-1,1.57,1.57,0,0,0-.82-1.43,5,5,0,0,0-2.43-.53l-2.3-.05a11.7,11.7,0,0,1-1.78-.15,1.87,1.87,0,0,1-1-.44,1.21,1.21,0,0,1-.33-.91,1.61,1.61,0,0,1,.19-.75A4.92,4.92,0,0,1,216.8,27Zm2.6,7.89a10.19,10.19,0,0,0,2.44-.26,3.81,3.81,0,0,0,1.6-.79,1.59,1.59,0,0,0,.56-1.17c0-.95-1.1-1.42-3.28-1.42a15.6,15.6,0,0,0-2.4.15,3,3,0,0,0-1.43.58,1.38,1.38,0,0,0-.5,1.12,1.49,1.49,0,0,0,.8,1.31A4.26,4.26,0,0,0,219.4,34.84Zm2.07-12.54a4,4,0,0,0-.55-2.26,1.57,1.57,0,0,0-1.33-.82,1.49,1.49,0,0,0-1.3.85,4.21,4.21,0,0,0-.52,2.23,5,5,0,0,0,.52,2.43,1.57,1.57,0,0,0,1.4.9,1.47,1.47,0,0,0,1.29-.87A5.08,5.08,0,0,0,221.47,22.3Zm-1.12-3.2a3.15,3.15,0,0,1,1.16,1.29,4.66,4.66,0,0,1,.37,2,4.09,4.09,0,0,1-1.24,3.28,2.89,2.89,0,0,0,2-3.1C222.64,20.57,221.88,19.42,220.35,19.1Zm6,.9a.49.49,0,0,1-.45.22,1.58,1.58,0,0,1-.68-.25,1.63,1.63,0,0,0-.76-.25.69.69,0,0,0-.24.05l-.21.08.24,0c.22,0,.5.2.86.6s.52.52.77.52a.48.48,0,0,0,.42-.19.67.67,0,0,0,.15-.41A.75.75,0,0,0,226.34,20Z" transform="translate(-1.76 -11.87)"/></svg>